<svg width="800" height="600" xmlns="http://www.w3.org/2000/svg">

 <g>
  <title>Layer 1</title>
  <g stroke="null">
   <metadata stroke="null">Created by potrace 1.16, written by Peter Selinger 2001-2019</metadata>
   <g stroke="null" fill="#000000" transform="translate(0 1500) scale(0.1 -0.1)">
    <path stroke="null" d="m-1674.11624,12225.34828l0,-5358.82028l5229.40825,0l5229.40825,0l0,5358.82028l0,5358.82028l-5229.40825,0l-5229.40825,0l0,-5358.82028zm3275.70133,1756.26403c40.44076,-15.71921 83.67053,-54.30271 103.19366,-92.88622c28.58743,-56.44624 30.6792,-82.16858 30.6792,-423.70406c0,-341.53548 -2.09176,-367.25782 -30.6792,-423.70406c-19.52312,-39.29802 -62.7529,-77.16701 -105.98267,-95.02975c-56.47761,-22.14979 -156.18499,-22.14979 -211.96535,0c-69.02819,26.43685 -117.13874,90.02818 -132.47834,171.48225c-9.06431,50.73017 -9.06431,643.77294 0,694.50311c18.82587,101.46033 82.97328,167.19519 180.5889,185.05793c45.32154,8.57411 122.01953,1.42902 166.64381,-15.71921zm1695.72278,-2.85804c90.64308,-42.15605 125.5058,-115.03601 125.5058,-265.79749l0,-80.73956l-74.60622,2.14353l-75.30348,2.14353l-3.48627,82.88309c-4.18353,95.74426 -12.55058,115.75052 -55.78035,128.61169c-34.16547,10.71764 -71.81721,-2.14353 -93.43209,-31.43841c-13.94509,-20.00626 -14.64234,-27.86587 -16.73411,-317.95667c-2.78902,-344.39352 -1.39451,-367.25782 26.49567,-395.83819c16.73411,-16.43372 25.79841,-20.00626 55.78035,-20.00626c75.30348,0 83.67053,17.86273 83.67053,175.0548l0,117.89405l-34.86272,0l-34.86272,0l0,75.02348l0,75.02348l111.56071,0l111.56071,0l0,-194.34655c0,-140.04384 -2.78902,-205.06419 -9.76156,-230.78653c-29.98194,-116.46503 -102.4964,-170.76774 -227.30495,-170.76774c-71.11995,0 -105.98267,9.28862 -150.60696,40.72703c-43.92703,30.00939 -76.00073,90.02818 -86.45955,160.0501c-10.45882,69.30741 -5.57804,674.49685 5.57804,709.5078c16.73411,50.73017 52.99134,102.17484 87.1568,124.32463c69.02819,43.58507 179.89164,49.30115 255.89238,14.29019zm552.22551,11.43215c36.95448,-10.71764 89.24857,-49.30115 110.86345,-82.16858c39.7435,-59.30428 41.13801,-77.16701 41.13801,-442.99581c0,-365.8288 -1.39451,-383.69153 -41.13801,-442.99581c-21.61489,-33.58194 -73.90897,-71.45094 -114.34973,-83.5976c-44.62428,-12.86117 -141.54265,-10.71764 -185.46968,4.28706c-51.59683,17.86273 -104.58816,72.16545 -126.90031,129.3262l-16.73411,42.87056l0,350.10959l0,350.10959l16.73411,42.15605c29.28469,75.73799 89.24857,125.75365 165.94656,140.04384c38.34899,7.14509 112.25796,3.57255 149.9097,-7.14509zm-1556.27189,-75.02348l0,-75.02348l-87.1568,0l-87.1568,0l0,-450.1409l0,-450.1409l-80.18426,0l-80.18426,0l0,450.1409l0,450.1409l-83.67053,0l-83.67053,0l0,75.02348l0,75.02348l251.0116,0l251.0116,0l0,-75.02348zm425.3252,72.16545c0,-1.42902 36.25723,-233.64456 80.18426,-515.87577c43.92703,-282.2312 80.18426,-517.30478 80.18426,-522.30635c0,-7.14509 -18.82587,-9.28862 -80.18426,-9.28862c-43.92703,0 -80.18426,2.14353 -80.18426,5.71607c0,5.00157 -17.43136,118.60856 -24.40391,164.33716l-4.18353,22.8643l-96.91837,0c-86.45955,0 -96.91837,-1.42902 -100.40464,-12.14666c-1.39451,-7.14509 -8.36705,-50.73017 -14.64234,-96.45877l-12.55058,-84.31211l-71.81721,0c-57.87212,0 -72.51446,2.14353 -72.51446,10.00313c0,5.71607 36.25723,240.78966 80.18426,523.02086c43.92703,282.2312 80.18426,513.73224 80.18426,515.16126c0,1.42902 53.68859,2.14353 118.53325,2.14353c65.54192,0 118.53325,-1.42902 118.53325,-2.85804zm3193.4253,-1293.97647l0,-403.69779l-393.94875,0l-393.94875,0l0,403.69779l0,403.69779l393.94875,0l393.94875,0l0,-403.69779zm-2632.13548,31.43841c50.89957,-19.29175 100.40464,-75.02348 119.23051,-132.18423c12.55058,-39.29802 13.24783,-66.44937 13.24783,-385.12055c0,-318.67118 -0.69725,-345.82254 -13.24783,-385.12055c-18.82587,-57.87526 -68.33093,-112.89248 -121.32227,-133.61325c-46.01879,-17.86273 -146.42343,-22.14979 -194.53399,-7.8596c-73.21172,22.14979 -132.47834,89.31367 -148.51519,169.33872c-4.88078,25.00783 -6.97254,152.90501 -5.57804,379.40448c2.09176,338.67744 2.09176,342.24999 18.12862,377.26095c32.77096,74.30897 79.48701,113.60699 154.79048,130.75521c49.50506,11.43215 129.68932,5.71607 177.79988,-12.86117zm-2537.30888,-353.68214c31.37645,-197.20459 57.87212,-362.25625 59.26663,-366.54331c2.09176,-5.00157 24.40391,138.61482 50.89957,318.67118c26.49567,180.05636 50.89957,345.82254 54.38585,368.68684l6.97254,40.72703l110.86345,0l110.86345,0l0,-525.16439l0,-525.16439l-76.69799,0l-76.69799,0l-0.69725,359.39821l-0.69725,358.6837l-52.99134,-357.25469l-53.68859,-357.25469l-76.69799,-2.14353l-76.69799,-1.42902l-55.0831,344.39352c-30.6792,190.05949 -57.87212,352.96763 -60.66114,362.97076c-2.78902,10.00313 -5.57804,-145.0454 -5.57804,-344.39352l-0.69725,-362.97076l-69.72544,0l-69.72544,0l0,525.16439l0,525.16439l112.95522,-1.42902l112.95522,-2.14353l57.17486,-357.96919zm951.05505,286.51826l0,-75.02348l-139.45089,0l-139.45089,0l0,-146.47442l0,-146.47442l111.56071,0l111.56071,0l0,-75.02348l0,-75.02348l-111.56071,0l-111.56071,0l0,-153.61951l0,-153.61951l139.45089,0l139.45089,0l0,-75.02348l0,-75.02348l-219.63515,0l-219.63515,0l0,525.16439l0,525.16439l219.63515,0l219.63515,0l0,-75.02348zm307.4892,45.01409c85.06504,-325.81627 152.69872,-580.18161 156.18499,-583.03965c2.09176,-2.14353 3.48627,135.04227 3.48627,304.38099l0,308.66805l69.72544,0l69.72544,0l0,-525.16439l0,-525.16439l-82.27602,0l-81.57877,0l-97.61562,370.83036l-97.61562,370.83036l-2.09176,-370.83036l-1.39451,-370.83036l-73.21172,0l-73.21172,0l0,525.16439l0,525.16439l101.10189,0l100.40464,0l8.36705,-30.00939zm870.87079,-45.01409l0,-75.02348l-87.1568,0l-87.1568,0l0,-450.1409l0,-450.1409l-80.18426,0l-80.18426,0l0,450.1409l0,450.1409l-83.67053,0l-83.67053,0l0,75.02348l0,75.02348l251.0116,0l251.0116,0l0,-75.02348zm1006.8354,57.16075c46.71605,-17.86273 89.94582,-62.87682 105.98267,-111.46346c11.15607,-31.43841 13.24783,-59.30428 13.24783,-156.47755c0,-112.17797 -0.69725,-120.03757 -18.12862,-157.19206c-18.82587,-40.01252 -34.86272,-61.44781 -63.45015,-82.16858c-14.64234,-10.00313 -14.64234,-12.14666 -4.18353,-18.57724c32.0737,-18.57724 55.0831,-46.44311 69.02819,-83.5976c13.94509,-36.43998 16.03685,-58.58977 20.22038,-212.20928c2.78902,-99.3168 8.36705,-180.05636 12.55058,-190.774l8.36705,-20.00626l-82.97328,0c-72.51446,0 -83.67053,1.42902 -88.55131,12.86117c-2.78902,6.43058 -6.97254,87.88465 -9.76156,180.05636c-2.78902,120.75208 -6.27529,173.62578 -13.24783,187.20146c-15.3396,31.43841 -40.44076,43.58507 -96.22111,47.15762l-50.89957,3.57255l0,-215.78183l0,-215.06732l-80.18426,0l-80.18426,0l0,525.8789l0,525.8789l162.46028,-2.85804c135.26736,-2.85804 167.34106,-5.00157 195.9285,-16.43372zm2946.59723,-953.87001l0,-407.27034l-397.43503,0l-397.43503,0l0,402.26878c0,221.4979 2.09176,405.12681 4.88078,407.27034c2.09176,2.85804 181.28615,5.00157 397.43503,5.00157l392.55425,0l0,-407.27034zm-913.40331,-3.57255l0,-403.69779l-393.94875,0l-393.94875,0l0,403.69779l0,403.69779l393.94875,0l393.94875,0l0,-403.69779zm-2666.99821,-287.23277c23.70665,-7.8596 46.01879,-23.57881 70.4227,-48.58664c50.20232,-51.44467 65.54192,-102.17484 65.54192,-218.63987l0,-85.02662l-72.51446,0l-71.81721,0l-3.48627,82.16858c-4.18353,92.88622 -11.85333,112.17797 -52.29408,130.04071c-31.37645,12.86117 -64.84466,7.14509 -90.64308,-15.71921l-19.52312,-16.43372l0,-347.96606l0,-347.96606l19.52312,-17.14822c15.3396,-13.57568 27.19292,-17.14822 57.17486,-17.14822c70.4227,0 86.45955,30.7239 87.1568,173.62578l0,76.4525l73.21172,0l73.21172,0l0,-102.88935c0,-136.47129 -12.55058,-182.9144 -65.54192,-236.5026c-46.01879,-47.15762 -89.24857,-63.59133 -171.52459,-63.59133c-76.69799,0 -124.11129,15.71921 -168.03832,57.87526c-18.12862,17.14822 -39.7435,47.87213 -48.80781,68.5929l-16.73411,37.15449l0,367.97233c0,345.10803 0.69725,370.11585 13.24783,402.98328c25.79841,69.30741 87.1568,118.60856 163.85479,132.89874c41.83527,7.8596 113.65247,2.85804 157.5795,-12.14666zm-1956.49594,-360.82723c50.89957,-321.52922 63.45015,-392.98015 63.45015,-365.8288c0,3.57255 23.70665,166.48068 52.29408,361.54174c28.58743,195.06106 52.29408,358.6837 52.29408,362.25625c0,5.00157 37.65174,7.8596 111.56071,7.8596l111.56071,0l0,-525.16439l0,-525.16439l-73.21172,0l-73.21172,0l0,365.8288c0,200.77713 -1.39451,363.68527 -3.48627,361.54174c-2.78902,-2.85804 -108.07444,-701.6482 -108.07444,-719.51094c0,-5.00157 -25.10116,-7.8596 -76.69799,-7.8596c-73.21172,0 -76.69799,0.71451 -80.18426,16.43372c-2.09176,8.57411 -28.58743,168.62421 -58.56937,355.11116l-55.0831,339.39195l-0.69725,-355.11116l-0.69725,-355.82567l-73.21172,0l-73.21172,0l0,525.16439l0,525.16439l113.65247,0l113.65247,0l57.87212,-365.8288zm872.2653,357.96919c0,-5.00157 36.25723,-239.36064 80.18426,-521.59184c43.92703,-282.94571 80.18426,-515.16126 80.18426,-517.30478c0,-2.14353 -36.25723,-3.57255 -80.18426,-3.57255c-77.39524,0 -80.18426,0.71451 -82.97328,16.43372c-2.09176,8.57411 -9.06431,52.15918 -15.3396,96.45877l-11.15607,80.73956l-99.01013,-2.14353l-98.31288,-2.14353l-13.94509,-94.31524l-13.24783,-95.02975l-74.60622,0c-67.63368,0 -74.60622,1.42902 -71.81721,12.86117c1.39451,6.43058 36.95448,235.78809 79.48701,508.73067c42.53252,272.94258 78.0925,503.72911 80.18426,513.01773c3.48627,15.71921 4.88078,15.71921 122.01953,15.71921c83.67053,0 118.53325,-2.14353 118.53325,-7.8596zm683.30934,-67.16388l0,-75.02348l-83.67053,0l-83.67053,0l0,-450.1409l0,-450.1409l-80.18426,0l-80.18426,0l0,450.1409l0,450.1409l-83.67053,0l-83.67053,0l0,75.02348l0,75.02348l247.52532,0l247.52532,0l0,-75.02348zm801.8426,-150.04697l0,-225.07045l90.64308,0l90.64308,0l0,225.07045l0,225.07045l83.67053,0l83.67053,0l0,-525.16439l0,-525.16439l-83.67053,0l-83.67053,0l0,225.07045l0,225.07045l-90.64308,0l-90.64308,0l0,-225.07045l0,-225.07045l-80.18426,0l-80.18426,0l0,525.16439l0,525.16439l80.18426,0l80.18426,0l0,-225.07045zm2266.07691,-421.56053l0,-403.69779l-393.94875,0l-393.94875,0l0,403.69779l0,403.69779l393.94875,0l393.94875,0l0,-403.69779zm913.40331,-3.57255l0,-407.27034l-397.43503,0l-397.43503,0l0,407.27034l0,407.27034l397.43503,0l397.43503,0l0,-407.27034zm906.43076,0l0,-407.27034l-393.94875,0l-393.94875,0l0,407.27034l0,407.27034l393.94875,0l393.94875,0l0,-407.27034z"/>
    <path stroke="null" d="m1465.62047,13849.42807c-25.10116,-5.00157 -50.20232,-36.43998 -54.38585,-68.5929c-2.09176,-16.43372 -3.48627,-170.05323 -2.09176,-340.82097c2.09176,-335.10489 2.09176,-330.81784 39.7435,-351.53861c23.0094,-12.86117 70.4227,-10.71764 92.73484,4.28706c10.45882,7.14509 21.61489,22.14979 25.79841,34.29645c4.88078,14.29019 7.6698,131.46972 7.6698,337.96293c0,206.49321 -2.78902,323.67274 -7.6698,337.96293c-11.85333,35.01096 -57.87212,55.73173 -101.79915,46.44311z"/>
    <path stroke="null" d="m3724.72484,13843.712c-11.85333,-5.00157 -27.89018,-18.57724 -34.86272,-29.29488c-11.85333,-18.57724 -12.55058,-42.87056 -12.55058,-350.10959c0,-325.10176 0,-330.81784 14.64234,-350.8241c34.16547,-47.15762 107.37718,-47.15762 135.26736,0c13.24783,21.43528 13.94509,38.58351 13.94509,350.10959c0,363.68527 0,360.82723 -45.32154,380.83349c-29.28469,12.14666 -42.53252,12.14666 -71.11995,-0.71451z"/>
    <path stroke="null" d="m2555.42915,13555.76472c-18.12862,-128.61169 -35.55998,-244.3622 -36.95448,-256.50886l-4.18353,-23.57881l78.78975,0c77.39524,0 78.0925,0 74.60622,16.43372c-2.09176,8.57411 -18.12862,117.17954 -36.25723,240.78966c-17.43136,123.61012 -34.16547,232.21555 -36.95448,240.78966c-2.78902,10.00313 -18.12862,-72.87996 -39.04625,-217.92536z"/>
    <path stroke="null" d="m3136.93935,12587.60453c-16.73411,-5.71607 -28.58743,-16.43372 -36.25723,-33.58194c-11.15607,-22.8643 -12.55058,-55.01722 -12.55058,-346.53704c0,-291.51982 1.39451,-323.67274 12.55058,-346.53704c24.40391,-50.73017 101.10189,-53.5882 136.66187,-5.00157c14.64234,20.00626 14.64234,27.86587 16.73411,336.53391c2.09176,340.82097 0.69725,358.6837 -33.46821,383.69153c-23.70665,17.86273 -54.38585,22.14979 -83.67053,11.43215z"/>
    <path stroke="null" d="m3680.79781,12421.83835l0,-162.19363l55.0831,2.14353c88.55131,4.28706 105.28542,30.00939 105.28542,157.90657c0,140.04384 -11.85333,157.90657 -101.79915,162.19363l-58.56937,2.14353l0,-162.19363z"/>
    <path stroke="null" d="m2029.00206,11271.47827c0,-3.57255 -16.73411,-118.60856 -36.95448,-255.07985c-19.52312,-137.1858 -34.16547,-250.07828 -32.0737,-252.22181c2.09176,-2.14353 36.25723,-2.85804 76.69799,-2.14353l72.51446,2.14353l-36.25723,248.64926c-32.77096,223.64143 -42.53252,280.80218 -43.92703,258.65239z"/>
   </g>
  </g>
 </g>
</svg>